/* XPM */
static char *_84c192aa10f43f09b4f7ad3e6ed6742CPvuk3fFasbkolSj[] = {
/* columns rows colors chars-per-pixel */
"64 64 141 2 ",
"   c #8EB7EF",
".  c #8DB7F3",
"X  c #8DB8F3",
"o  c #90B7F0",
"O  c #93BBF3",
"+  c #99BEF3",
"@  c #9CC1F4",
"#  c #A2C4F4",
"$  c #A8C7F5",
"%  c #A6C8F5",
"&  c #ACCBF6",
"*  c #ABCBF9",
"=  c #B2CEF6",
"-  c #B3CEF8",
";  c #B4D1F6",
":  c #BAD4F5",
">  c #BBD6F4",
",  c #BBD5F6",
"<  c #BAD4F7",
"1  c #B8D5F5",
"2  c #BDD4F4",
"3  c #BCD5F4",
"4  c #BED5F5",
"5  c #BDD6F5",
"6  c #BCD7F5",
"7  c #BFD6F5",
"8  c #BCD4F6",
"9  c #BDD4F6",
"0  c #BDD5F7",
"q  c #BED5F7",
"w  c #BCD6F7",
"e  c #BFD6F6",
"r  c #BED7F6",
"t  c #BAD3F7",
"y  c #BFD8F6",
"u  c #BFD8F7",
"i  c #BED9F7",
"p  c #BFD8F7",
"a  c #B4D0F8",
"s  c #B5D1F8",
"d  c #B5D1F9",
"f  c #B7D0F8",
"g  c #B7D0F9",
"h  c #B4D2F8",
"j  c #B5D3F9",
"k  c #B6D2F9",
"l  c #B5D1F8",
"z  c #B9D0F9",
"x  c #B8D1F9",
"c  c #BBD1F8",
"v  c #B9D3F8",
"b  c #BAD2F8",
"n  c #BBD3F9",
"m  c #BDD3F8",
"M  c #BDD3FA",
"N  c #BBD5F8",
"B  c #BAD4F9",
"V  c #BCD4F8",
"C  c #BDD5F9",
"Z  c #BED4F9",
"A  c #BCD6F9",
"S  c #BED6F8",
"D  c #BFD6F8",
"F  c #BFD7F9",
"G  c #BCD4FA",
"H  c #BDD5FB",
"J  c #BFD5FA",
"K  c #BCD6FB",
"L  c #BED6FA",
"P  c #BFD7FB",
"I  c #BFD5FC",
"U  c #BBD3F9",
"Y  c #BED8F9",
"T  c #C0D4F5",
"R  c #C1D5F6",
"E  c #C0D7F6",
"W  c #C0D7F7",
"Q  c #C2D6F7",
"!  c #C0D7F7",
"~  c #C0D8F4",
"^  c #C1D9F5",
"/  c #C3D8F5",
"(  c #C1D8F7",
")  c #C0D9F7",
"_  c #C3D8F7",
"`  c #C1DBF6",
"'  c #C2DAF6",
"]  c #C3DBF7",
"[  c #C5DAF5",
"{  c #C5D8F6",
"}  c #C4D9F6",
"|  c #C6D9F7",
" . c #C5DAF7",
".. c #C6DBF6",
"X. c #C7DBF6",
"o. c #C4DCF6",
"O. c #C7DCF7",
"+. c #C1D5F8",
"@. c #C0D4F9",
"#. c #C0D7F9",
"$. c #C3D7F8",
"%. c #C0D6FB",
"&. c #C5D7FB",
"*. c #C1D7FC",
"=. c #C1D8F8",
"-. c #C0D9F8",
";. c #C2D9F8",
":. c #C2D9F9",
">. c #C1DAF8",
",. c #C1DAF9",
"<. c #C0DBF9",
"1. c #C3DAF9",
"2. c #C2DBF9",
"3. c #C0D8FA",
"4. c #C1D8FA",
"5. c #C2D9FB",
"6. c #C3DAFA",
"7. c #C5D8F8",
"8. c #C4D9F8",
"9. c #C4D8F9",
"0. c #C6D9F9",
"q. c #C5DAF9",
"w. c #C7DAF8",
"e. c #C6DBF8",
"r. c #C5D9FA",
"t. c #C4DBFA",
"y. c #C4DBFB",
"u. c #C7DAFA",
"i. c #C6DBFA",
"p. c #C6DAFB",
"a. c #C7DAFB",
"s. c #C4DCF8",
"d. c #C5DDF9",
"f. c #C7DCF9",
"g. c #C5DCFB",
"h. c #C7DCFB",
"j. c #C4DAF9",
"k. c #C9DAF8",
"l. c #C8DBF9",
"z. c #C9D9FA",
"x. c #C8DBFB",
/* pixels */
". . X . . . . . . . O O O O O O O . . . . . . . . O . . X . O O @ O O X X O . . O @ # $ & ; = & % # +   . . . . . . . . X X . . ",
". . . . . . . . O @ $ = - a k ; & % + . . . . . . . . O # $ & & = & * $ @ O O @ % $ = = & = & ; & & & @ O . . . . . X . X . X . ",
". . . . X . O # = V E f.q.f.f.x.q.E : $ + O . . . O # & ; V Y ( q V #.q ; = $ & a = = = = ; & & a a a = $ +     o . . . . . . . ",
"X . . X X O % V  .q.x.q.h.q.x.q.x.q.q.( ; # . . + $ : 3.3.V V < i < V q E 3.3.E ; = & = ; & = ; a 1 6 6 q = # + o . X . X X . . ",
". . . . O * $. .f.q.3.q.f.f. .x.3.f.q.f.q.: # + = q E q > q q q q q 9 #.i E 3.( V k = & = - < ( i ( 3.( O.` Y a # + . O . . X X ",
". O . @ * 3. .q.f.q.f.h.q.q.q.q.h.q.q.x.q.q.V : q i < q < q q q < V 9 E E q. .( ` q = = - N  .( ( ( 3.f.( ( ( ( ; & O . . . . . ",
"O O O $ ( q.q.f.q.h.q.q.h.q.f.q.h.h.h.f.f.q.x.q.q q > q q < q > i q Y 3.q.( 3. . .( V k V 3.f.( ` ( 3.( f.] 3.3.{ q $ O . . . . ",
"O . @ < q.q.f.q.q.x.h.q.h.h.f.q.q.h.q.f.q.f.q.q.( V > V q q q < < q ( ( 3. .3.( 3.( 3.3.( q.3.( (  .`  .( 3.( O.E E N * X . . X ",
"O O $ 3.f.q.q.h.q.f.h.q.h.q.h.q.q.h.q.h.q.h.q.f.q.( q q q 6 q q q q 3.( ( 3.O.` ( ( f.q.3.q.3.( q.(  .3.f.( (  .$.E V b + . . . ",
"O @ ; f. .f.h.q.q.h.q.h.q.h.q.h.h.q.h.q.h.q.f.q.q.3.V < q q q V q q ] (  .3.( ( ] 3.q. .q.q.q.q.f.3.f.3.( 3.] 3.3.#.E E & + o . ",
". # V f.O.q.q.h.h.q.h.q.h.q.h.q.q.h.q.h.q.h.q.f.f.q.V q < V q < q i 3.3. .` ( q.3.q.q.f.q.q.h.q.q.f.h.q.] 3.q.(  .E #.#.- + X o ",
"X $ Y q.f. .h.q.q.h.q.h.q.h.q.h.h.q.h.q.h.q.h.q.f.( P q V Y 3.V q ( ` f.( 3.( ( 3.q.h.q.q.h.q.h.] q.q.h.f.f.3.3.E 3.q #.b # X X ",
"O & i f.q.q.x.h.h.q.h.q.h.q.h.q.q.h.q.h.q.f.q.f.q.q.E V #.#.q q I ( ( 3.f.3. .q.q.x.q.q.h.q.h.q.h.h.q.q.h.q.x.q.$.3.#.V M # . . ",
"% = ( O.q.q.q.f.q.h.q.h.q.h.q.h.h.q.h.q.h.q.f.q.f.3.i q 3.V #.3.( 3.q.( ( ` 3.3.O.q.q.h.h.h.q.h.h.q.q.h.q.q.q.h.x.q.V 3.V # . . ",
"3.3.q.q.q.f.q.x.h.q.h.q.h.q.h.q.q.h.q.h.q.h.q.f.f.q.3.( #.E 3.( ( 3.f.q. .q.q.f.q.f.q.f.h.q.h.q.h.q.h.q.q.h.q.f.x.3.#.E b # . X ",
"k.q.q.f.q.h.q.h.q.h.q.h.q.h.q.h.h.q.h.q.h.q.f.q.q.O.3.(  .q.q.q.3.q.q.q.q.q.q.q.f.q.h.q.q.h.q.h.q.h.q.h.h.q.f.q.f.q.3.V b @ . . ",
"f.f.h.q.h.q.h.q.h.q.h.q.h.q.h.q.h.q.h.h.q.h.q.h.f.q. .q.q.q.q.q.q.q.q.q.h.q.h.q.h.q.h.q.h.q.h.q.h.q.h.q.h.q.h.q.h.q.q.#.& + . . ",
"O.q.q.h.q.h.q.h.q.h.q.h.q.h.q.h.q.h.q.h.h.q.h.q.q.f.q.q.q.q.q.q.q.q.q.q.q.h.q.h.q.h.q.h.q.h.q.h.q.h.q.h.q.h.q.h.q.q. .#.% + + + ",
"q.q.h.q.q.h.h.q.h.q.h.q.h.q.h.q.h.q.h.q.&.h.h.q. .q.q.q.q.q.q.q.q.q.q.q.q.q.h.q.h.q.h.q.h.q.h.q.h.q.h.q.h.q.h.q.q.q.x.E - & = = ",
"q.h.q.h.h.q.h.h.q.h.q.h.q.h.q.h.q.h.q.h.q.h.q.h.f.q.q.q.q.q.q.q.q.q.q.q.q.h.q.h.q.h.q.h.q.h.q.h.q.h.q.h.q.h.q.h.f.h.h.h.( $.q.$.",
"q.h.q.h.q.h.q.h.h.q.h.q.h.q.h.q.q.h.q.h.h.q.h.h.f. .f. .q.q.q.q.q.q.q.q.h.q.h.q.h.q.h.q.h.q.h.q.h.q.h.q.h.q.h.q.h.q.q.x.x.3.f.f.",
"h.q.h.q.h.q.h.q.q.h.q.h.q.h.q.h.h.q.h.q.q.q.q.q.q.f. .f.q.q.q.q.q.q.q.q.h.$.q.h.q.h.q.h.q.h.q.h.q.h.q.h.q.h.q.h.q.h.h.q.O. .f.f.",
"q.h.q.h.f.q.q.h.h.q.h.q.h.q.h.q.q.h.q.h.q.q.q.q.q.q. .f.O.q.q.q.q.q.q.q.h.h.h.q.h.q.h.q.h.q.h.q.h.q.h.q.h.q.h.q.h.q.q.h.h.h.q.f.",
"h.q.h.q.h.q.q.q.q.h.q.h.q.h.q.f.f.q.q.x.q.q.q.q.q.q.f.q.f. .q.f.q.q.q.q.q.h.q.h.q.h.q.h.q.h.q.h.q.h.q.h.q.h.q.h.q.h.h.q.q.q.h.q.",
"q.h.q.h.h.q.f.q.h.q.f.q.f.q.f.q.q.f.q.f.q.q.q.q.q.q.q.q.O.f. .3.q.h.(  . .q.f.h.h.q.h.q.h.q.h.q.h.q.h.q.h.q.h.q.h.q.h.q.h.q.h.q.",
"h.q.h.q.q.h.q.f.q.f.q.f. .f.q.f.f.q.f.q.q.q.q.q.q.q.q.q.q.q.f.3.V q q V q.f.q.q.f.q.q.h.h.h.q.h.q.h.q.h.q.h.q.h.q.h.q.h.q.h.q.h.",
"q.h.q.h.f.q.f.q.f. .f.q.f. .f. . .f.q.q.f.q.f. .q.q.q.q.q.q.f.3.q 9 M b E q.h.q.q.f.h.q.q.q.h.q.h.q.h.q.h.q.h.q.h.q.h.q.h.q.h.q.",
"h.q.h.q.q.f.q.f. .f. .f. .f. .f.f. .f.f. .f. .q.$.$.q.q.q. .q. .E M N M V #.h.h.q.h.q.x.h.h.q.h.q.h.q.h.q.h.q.h.q.h.q.h.q.h.q.h.",
"q.h.q.h.q.h.f. .f. .f. .f. .f. . .f. .q.f. .f.O.x. .q.q.q.q.q.3.i N V q I i x.f.h.q.q.q.h.q.h.q.h.q.h.q.h.q.h.q.h.q.h.q.h.q.h.q.",
"h.q.h.q.h.q. .x. .f. .f. .f. .f.f. .f. . .f.q.f.f.q. .q.q.q.q. .V V q ( Y q.3.q.q.q.x.q.q.h.q.h.q.h.q.h.q.h.q.h.q.h.q.h.q.h.q.h.",
"q.h.q.h.q.h.h. .f. .f. .f. .f. . .f. .f.f. .f. . .f.f.q.q.q. .3.3. .( ` 3.O.f.q.h.h.h.q.h.q.h.q.h.q.h.q.h.q.h.q.h.q.h.q.h.q.h.q.",
"h.q.h.q.h.q.q.q. .f. .f. .f. .f.f. .f. . .f. .f.O.q.q.q.q.q.q.q.3.( 3.f.( 3.( ( q.q.q.h.q.h.q.h.q.h.q.h.q.h.q.h.q.h.q.h.q.h.q.h.",
"q.h.f.q.f.q.f. .O.q.f.O.f. .f.O.O.q.O.q.O.q.O.q.f. .f. .q.q.q.q.q.( ` q.3.3.( O. .3.( q.q.q.q.q.f.q.h.q.h.q.h.q.h.q.h.q.h.q.h.q.",
"h.q.h.f.q.f.q.O. . . .(  .f. .q.q.O.q.O.q.O.q.O. .f. .f. . . .f.3. .( 3.( f.3.3.3.*.E : q 3.q.h.q.h.q.h.q.h.q.h.q.h.q.h.q.h.q.h.",
"q.h.q.q.f.h. .k.q.q.q.O.O. .q.O.O.q.O.q.O.q.O.q.f.q.f. . .O.q.3.q.(  .q.3.] ( 3.V q k k ; V q.q.h.q.h.q.h.q.h.q.h.q.h.q.h.q.h.q.",
"h.q.h.q.h.q.x. .q. .O. .f.f.O.q.q.O.q.O.q.O.q.O.q.f.f.q.f.3.q.( ( ( ] Y q.3.( ( b : k = = E x.q.q.h.q.h.q.h.q.h.q.h.q.h.q.h.q.h.",
"3.q.h.q. .f.3.3.3.3.q.q.f. .f.f.O.q.O.q.O.q.O.q.f.f. .q.3.O.(  .q.3.#.q.( ( Y : z a ; ; j V q.x.h.q.h.q.h.q.h.q.h.q.h.q.h.q.h.q.",
"f.h.h.h.O.O. . . . .q. .f. . .q.q.O.q.O.q.O.q.O.f. .f.q.x.q.( ( E E ( i i q b k ; k k ; ; q q.q.q.h.q.h.q.h.q.h.q.h.q.h.q.h.q.h.",
"h.q.q.h.q.3.( ( ( 3.q.q.q.f.f.O.O.q.O.q.O.q.O.q.O.q.O.q.q.q.#.V q V q V b ; k k ; ; k ; ; V  .f.h.q.h.q.h.q.h.q.h.q.h.q.h.q.h.q.",
"q.h.q.q.q.( q.3. . .( 3.q.q. . .q.O.q.O.q.O.q.O.q.O.q.O. . .M : ; : ; a a k k = k ; ; k k V 3.q.q.h.q.h.q.h.q.h.q.h.q.h.q.h.q.h.",
"h.q.q. .3.3. .( 3. .3.3.(  . . .k. .q.O.q.O.q.O.f.f.q.q.f.q.: - k = k k k ; k k ; - k ; ; k 3.x.q.h.q.h.h.q.h.h.h.q.h.q.h.q.h.q.",
"q.q.q. .( (  .3.] ( ( O.( 3.3. .q.q.q.q.q.q.q.q.q.q.q.q.q.q.M k k k k ; k ; = k k k = k = ; E f.3.q.h.h.q.h.q.q.q.h.q.h.q.h.q.h.",
"3.3.( ( O.( ( 3.3.(  .3.O.( ] q.3.3.q.q. .( ( q.q.q.f.q. .q.N ; = k k = k k k ; k = k ; k ; < q.f.f.h.q.h.q.q.h.h.q.h.q.h.q.h.q.",
"3. . .3.3.3.( O.O.( 3.] 3.( 3. .( `  .q. .( 3.( q.q.q. .f.( b k k ; k k = ; k - k k ; k ; ; < ( f.q.q.h.q.h.h.q.q.h.q.h.q.h.q.h.",
"3.O. .3.( 3. .3.3.( O.(  .3.( 3.( q.] ( 3.3.` f.q. .q.f.f.3.N a = k k = k k ; k k k k ; k = f V q.h.q.q.f.h.q.h.h.q.h.q.h.q.h.q.",
"( ( 3.] ( ] O.(  .3.3.( 3.] ( O.( ( 3.O.( O.3.] q.f.3.O.q.( ; k k k k ; ; k k k k ; ; k ; k = k Y q.q.f.q.f.h.q.q.h.q.h.q.h.q.h.",
"( ] ( ( 3. .3.( ( ] ( 3.( O.3.( 3.( ( 3.( ` 3.f.q.q.q.f.q.q ; ; ; ; k k k k ; = k k k k k k a a < 3.f.O.q.q.f.q.h.q.h.q.h.q.h.q.",
" .3.3.O.( 3.] ( ( 3.O.(  .3. .( 3.O.(  .3.( ( q.q.O.q.f.3.b k = k k = k = k k k = k k = ; k ; ; : q q.( f.q.f.f.q.h.q.h.q.h.q.h.",
"3.3.3.` O.( ( ( O.( ( ] 3.( O.3.( ( 3.( 3.f.f.q.q.q.h.q.#.; k k = k k k k = k k k - k ; ; k k k k k V 3. .f.q.f.q.f.x.q.f.f.h.q.",
"( O.( ` 3.3.( 3.( 3.( 3. .3.( ( f.( `  .( ] ` ( q.q. .3.: a = k k k ; = k k ; = ; k ; k k k = ; k = k E 3.f.f.q.q.h.q.q.h.3.q.h.",
"q.] O.(  .( ( 3.` (  .O.3.O.] 3. .3.( f.3.( ( ( q. .f.3.k k k k k ; ; k ; k k k k ; = k = k k k - k ; k q Y f.f.h.q.x.x.x.q.f.q.",
"3.( ( 3. .3.] O.q.3.3.( ( ( 3. .( 3.q.( ` q.O.( q. .( ; = k = ; ; k k k = k ; k k k k k ; k = k k k k = a < q 3.h.q.q.q.q.q.f.q.",
"] 3.i ] 3.3.3.( ( 3.3. .(  .3.( 3.` q. . .` $.q. .$.9 k k k a ; k ; k ; k ; k ; = ; k = k k = ; k ; k = b = a < i ( ( i q.q. .f.",
"q O.f.( 3.O.q.( ( O.( 3.] 3.3.O.3.] ( 3.( 3.3.3.M = h - ; ; k k - k k k ; k - k k k k k ; k k k k k ; k k k a a ; k & & ; 9 V V ",
"% < O.( ( 3.( ( ] 3.( ] ( 3.( ( (  .( 3.3. .f.1 @ + & : ; k ; ; k = = k = k k k ; k ; k = k k ; = ; k k k = k h k $ O . O O + @ ",
"O # ; 3.f.f.( q.3. .( 3.O. .3.] 3.( q.f.q.( = @     # = k = k ; k k ; k k k ; = k k = k k k ; ; k - ; k k ; ; b = + . . . . . . ",
". o @ $ 1 3.h.h.f.q. .3.q.] f.q.q.f.q.q ; $ O . . . O % k ; a h ; k k : - k k ; k ; k b k k k a k k ; k k ; k - # . . . . . . . ",
". . . O # $ h I q q.q.O.f.3.3.#.V N k * @ O . .   . . + & ; a k a k - k - ; k k ; - - ; = k k ; = ; k k - b - $ O   . . . . . . ",
". . . . . . O # & = a ; = k ; & % # O . . . . X . .   . @ = ; : = k b k k k ; ; k k k - ; a ; k ; ; ; k k = * O . . . . X . . . ",
". . . . . . . X O O O O + O O O O X . X . . . . . . . . . + $ k k = = ; k k k = k - : ; k k j k ; ; ; < = $ O X . . . . X . . . ",
". . . o . . . . . . . . . . . . X . . . . . . . . . . . .   + % - k k k = = ; k k ; k k - h = ; k - k = @ O X X . . . . X X X X ",
". . . . X . . . . . . . . . . . . X . . . X . . . . . . . . . O # & = b k : k k ; k ; ; k k 1 b k = $ @ X X X X . X . . . X . . ",
". . . . . . . . . . X . . X . . X . . . . X X . . X . X . X . X . O # * & - k k ; k ; a h = = & $ # O . . . X . . . . . . X . X ",
". . . . . . . . . . . . . . . . . . . . . . . . . . . . . . X . X X o O @ % $ = ; ; ; a = $ # + O X . . . . . . . . . . . . . . "
};
